<svg version="1.1" id="Layer_1" xmlns="http://www.w3.org/2000/svg" xmlns:xlink="http://www.w3.org/1999/xlink" x="0px" y="0px"
	 width="100%" viewBox="0 0 1024 1024" enable-background="new 0 0 1024 1024" xml:space="preserve">
<path opacity="1.000000" stroke="none" 
	d="
M826.038940,936.000000 
	C826.039307,924.500061 826.114502,913.499268 826.002258,902.500488 
	C825.958740,898.234680 826.826111,894.332886 828.641846,890.451904 
	C854.479492,835.225098 872.226257,777.515991 881.817444,717.282532 
	C887.510620,681.528809 890.433777,645.579529 889.678406,609.385803 
	C889.414307,596.730408 886.343811,584.343628 884.498169,571.846924 
	C880.804443,546.836975 876.735901,521.882507 872.833252,496.903412 
	C870.692078,483.199066 860.721619,472.539429 847.210449,469.544464 
	C833.742432,466.559082 819.956787,472.547211 812.222046,484.349396 
	C806.722412,492.741119 806.583374,501.884430 807.507751,511.308899 
	C809.082825,527.367920 810.674622,543.425598 812.182739,559.490967 
	C812.654785,564.519592 810.605103,567.660767 806.790100,568.239014 
	C802.597534,568.874390 799.814392,566.544495 798.971741,561.134888 
	C794.491882,532.372742 790.116516,503.594330 785.684265,474.824738 
	C784.798340,469.074158 784.135742,463.265106 782.830505,457.607513 
	C778.554443,439.072632 762.516785,428.181671 744.968872,431.636810 
	C727.355164,435.104858 715.612854,452.822144 718.593750,471.151611 
	C720.728333,484.277344 722.626282,497.441833 724.592468,510.594604 
	C725.341248,515.604004 723.477844,518.703674 719.513794,519.258850 
	C715.484680,519.823120 712.508362,517.426758 711.759521,512.622742 
	C708.352539,490.765961 705.051941,468.892578 701.671265,447.031647 
	C699.714172,434.375977 697.989136,421.673431 695.601135,409.098053 
	C692.365662,392.059753 677.713013,379.493713 661.497681,379.200989 
	C644.580139,378.895630 631.034729,391.959442 630.234131,408.982697 
	C629.786011,418.512421 633.016907,427.361389 634.661804,436.495544 
	C636.369995,445.981018 638.595642,455.373688 640.617859,464.802063 
	C641.896606,470.763702 640.337463,474.364746 636.066528,475.191437 
	C631.832336,476.011017 629.004150,473.363647 627.733826,467.342651 
	C624.197205,450.579865 620.424011,433.861359 617.256348,417.028992 
	C615.830872,409.453705 612.502991,402.876526 608.888489,396.326019 
	C585.061340,353.144562 555.385925,314.709167 516.705933,283.715240 
	C499.113647,269.618652 480.483307,257.049377 459.917145,247.576874 
	C455.812286,245.686203 451.528320,244.262283 447.086121,243.517166 
	C439.888977,242.309967 435.957214,244.977539 434.249664,252.013901 
	C432.018982,261.205963 433.577637,270.261078 435.790710,279.157440 
	C440.981323,300.023041 451.301453,317.563385 469.083191,330.404755 
	C486.938171,343.299042 502.550659,358.442322 513.561951,377.800720 
	C526.233521,400.077789 534.201416,423.826721 536.482056,449.492767 
	C538.650757,473.898865 539.685486,498.336182 538.995728,522.807434 
	C538.075745,555.445923 534.979492,587.901489 529.274902,620.078064 
	C528.694641,623.350952 527.986389,626.601074 527.361023,629.866211 
	C526.023682,636.849121 522.133057,638.880920 515.887756,635.473816 
	C499.278687,626.412903 484.042542,615.452881 470.306091,602.388611 
	C451.626709,584.623291 436.701630,564.154419 425.299774,541.059448 
	C421.212402,532.780396 414.133606,527.028625 407.464233,521.054199 
	C393.546295,508.586456 378.298737,498.281830 359.744812,493.938324 
	C355.873779,493.032104 351.931671,492.441650 347.888062,492.645569 
	C329.275482,493.584229 324.428619,510.957825 326.752136,523.063782 
	C327.704193,528.024170 329.706818,532.576233 332.442841,536.831970 
	C363.441681,585.048096 394.402069,633.289001 425.442657,681.478271 
	C428.273132,685.872437 430.218658,690.453979 431.577332,695.537598 
	C444.051849,742.211243 466.271820,783.669128 498.468262,819.765747 
	C521.325378,845.391602 547.915222,866.318909 577.847107,883.004211 
	C582.086853,885.367615 584.245850,888.322205 584.996521,892.966309 
	C588.338562,913.641541 591.837708,934.291321 595.279602,954.950439 
	C596.125854,960.029968 596.922058,965.118469 597.827881,970.187317 
	C598.821899,975.750061 597.171021,979.312195 593.091370,980.141174 
	C588.935303,980.985718 585.847473,978.376648 584.899963,972.809143 
	C581.774109,954.441833 578.759399,936.055664 575.694397,917.677917 
	C574.709290,911.771240 573.536255,905.889771 572.763245,899.955872 
	C572.285278,896.286926 570.538818,894.097839 567.342529,892.253052 
	C512.609314,860.662170 470.820892,816.709595 442.168152,760.377686 
	C432.019226,740.424622 424.244690,719.523010 418.602356,697.846375 
	C417.842255,694.926086 416.701050,692.245789 415.044891,689.671509 
	C384.122955,641.607544 353.304779,593.476807 322.368805,545.421936 
	C314.328857,532.932983 310.795074,519.755859 314.779449,505.062103 
	C318.963226,489.633148 331.757629,479.877594 347.836304,479.639618 
	C369.148926,479.324127 386.711395,488.840820 403.351593,500.671021 
	C412.059967,506.862152 419.896027,514.113831 427.291687,521.837585 
	C431.812256,526.558594 435.485901,531.736755 438.458710,537.643799 
	C455.341156,571.189514 479.877289,597.851074 511.662750,617.840149 
	C512.624878,618.445129 513.708313,618.857239 514.942749,619.460876 
	C517.541016,616.687866 517.065247,613.143005 517.587463,610.042175 
	C524.716797,567.706360 526.843933,525.036865 525.631531,482.177734 
	C524.789062,452.394989 521.794983,423.046448 508.353760,395.711670 
	C499.072174,376.836212 486.521088,360.741577 469.913635,347.804199 
	C463.868866,343.095215 457.688080,338.512238 452.027405,333.367767 
	C433.247833,316.300934 424.482361,294.199493 420.667419,269.691040 
	C419.497528,262.175568 419.699738,254.747070 421.715759,247.419113 
	C425.133728,234.995087 435.015503,228.620010 447.860779,230.402710 
	C463.850403,232.621811 477.177612,240.898422 490.544525,249.101974 
	C545.318848,282.718170 586.187012,329.335968 617.530334,384.867798 
	C618.502075,386.589417 619.195129,388.515015 620.858765,389.817322 
	C622.624084,389.765381 622.761841,388.124634 623.408569,387.093903 
	C639.518799,361.417480 675.088074,358.542175 695.413208,381.182373 
	C704.474548,391.275848 708.765442,403.227753 710.355591,416.449982 
	C711.125610,422.852478 712.296143,429.206787 713.365112,436.097137 
	C715.963623,433.654327 718.013367,431.587494 720.207520,429.687469 
	C734.205017,417.566589 750.246094,414.809296 767.354919,420.944153 
	C784.057312,426.933289 792.834229,440.090942 796.234375,457.043457 
	C797.596680,463.835754 798.430298,470.734039 799.514038,477.644836 
	C801.883789,477.271942 802.335754,475.439392 803.294861,474.206024 
	C813.982666,460.462372 828.150391,453.941132 845.290344,456.039490 
	C863.539551,458.273712 876.728943,468.412567 883.751892,485.588196 
	C886.848877,493.162537 886.813843,501.554321 888.091797,509.580261 
	C892.378479,536.502136 895.785034,563.576172 900.623779,590.394287 
	C904.346741,611.028198 902.687439,631.583435 901.876099,652.145081 
	C901.049988,673.083313 898.607910,693.922607 895.440186,714.675720 
	C889.092773,756.260193 879.040833,796.888428 865.030945,836.546509 
	C857.868103,856.822510 849.740295,876.701416 840.547241,896.140930 
	C839.435242,898.492371 839.271118,900.912415 839.274109,903.434509 
	C839.300049,925.267761 839.291992,947.101013 839.288086,968.934265 
	C839.287781,970.600403 839.416321,972.291565 839.181519,973.927612 
	C838.652344,977.615540 836.775330,980.240356 832.722900,980.213806 
	C828.755859,980.187683 826.501892,977.758301 826.201294,973.991638 
	C825.870789,969.850464 826.057373,965.666565 826.049927,961.501221 
	C826.034973,953.167480 826.041321,944.833740 826.038940,936.000000 
z"/>
<path opacity="1.000000" stroke="none" 
	d="
M209.667847,313.645264 
	C190.159317,337.024353 170.870514,360.124023 150.750687,384.218903 
	C157.375412,383.832458 162.705887,383.521515 168.036377,383.210571 
	C163.629410,389.497253 161.420868,397.570679 152.052246,397.938904 
	C145.571930,398.193604 139.106308,398.943939 132.649597,399.620453 
	C129.801804,399.918823 128.821793,398.788452 128.615738,396.040375 
	C128.168015,390.069611 127.815704,384.052277 126.750114,378.176270 
	C125.030670,368.694580 132.234833,364.334595 137.362793,357.641144 
	C140.729492,363.255554 138.109940,369.187622 141.064392,374.878876 
	C226.490128,272.575714 311.763580,170.454926 397.352539,67.956276 
	C391.339661,66.151642 385.947388,69.201881 379.503937,67.599358 
	C385.469208,61.485523 387.798431,52.939957 398.017242,53.421482 
	C403.107239,53.661331 408.263153,52.399319 413.395233,51.875900 
	C419.423523,51.261093 419.955994,51.803883 420.342407,57.762680 
	C420.643555,62.407372 420.435272,67.243935 421.701111,71.635605 
	C424.739655,82.177689 416.912994,86.763695 410.409851,92.747810 
	C409.781006,87.411385 409.152191,82.074951 408.376953,75.495934 
	C341.817505,155.260849 275.852539,234.313339 209.667847,313.645264 
z"/>
<path opacity="1.000000" stroke="none" 
	d="
M365.891571,433.488403 
	C368.043823,437.106445 367.904572,440.229950 364.866821,442.742065 
	C361.732605,445.333984 358.761963,444.119965 355.737854,442.131348 
	C338.282074,430.652679 319.600006,426.888245 299.708252,434.616852 
	C278.054169,443.030090 264.276459,466.033264 264.950958,491.480286 
	C265.088104,496.653442 265.702301,501.740021 266.975037,506.785156 
	C267.978821,510.764130 266.927673,514.154480 262.573364,515.547058 
	C258.974518,516.698059 255.498657,514.607666 254.310684,510.316376 
	C245.447113,478.299530 258.380219,438.014282 292.604736,423.319855 
	C318.558624,412.176483 343.066559,416.779968 365.891571,433.488403 
z"/>
<path opacity="1.000000" stroke="none" 
	d="
M423.929932,190.129150 
	C399.250427,192.315048 378.974854,212.789047 375.240234,238.363815 
	C373.890228,247.608887 374.432251,256.571777 376.525391,265.575592 
	C377.639160,270.366547 375.883911,273.576355 371.903839,274.543182 
	C368.158966,275.452820 365.046967,273.450104 363.875000,268.973877 
	C355.163269,235.700302 368.841827,197.148514 401.679535,182.616898 
	C426.612793,171.583206 450.444458,175.380707 472.811798,190.207901 
	C477.413788,193.258575 478.308502,196.889694 475.947784,200.312576 
	C473.581146,203.743973 469.893799,204.193420 465.418884,201.145554 
	C455.099823,194.117203 443.723541,190.336838 431.309387,189.657852 
	C429.008240,189.532013 426.678375,189.930740 423.929932,190.129150 
z"/>
</svg>